<?xml version="1.0" encoding="utf-8" standalone="no"?>
<!DOCTYPE svg PUBLIC "-//W3C//DTD SVG 1.1//EN"
  "http://www.w3.org/Graphics/SVG/1.1/DTD/svg11.dtd">
<!-- Created with matplotlib (http://matplotlib.org/) -->
<svg height="288pt" version="1.1" viewBox="0 0 432 288" width="432pt" xmlns="http://www.w3.org/2000/svg" xmlns:xlink="http://www.w3.org/1999/xlink">
 <defs>
  <style type="text/css">
*{stroke-linecap:butt;stroke-linejoin:round;}
  </style>
 </defs>
 <g id="figure_1">
  <g id="patch_1">
   <path d="M 0 288 
L 432 288 
L 432 0 
L 0 0 
z
" style="fill:#ffffff;"/>
  </g>
  <g id="axes_1">
   <g id="patch_2">
    <path d="M 56.11125 240.63 
L 416.88 240.63 
L 416.88 15.12 
L 56.11125 15.12 
z
" style="fill:#ffffff;"/>
   </g>
   <g id="matplotlib.axis_1">
    <g id="xtick_1">
     <g id="line2d_1">
      <defs>
       <path d="M 0 0 
L 0 -5 
" id="m30e2ead746" style="stroke:#000000;stroke-width:0.8;"/>
      </defs>
      <g>
       <use style="stroke:#000000;stroke-width:0.8;" x="62.794893" xlink:href="#m30e2ead746" y="240.63"/>
      </g>
     </g>
     <g id="text_1">
      <!-- 0 -->
      <defs>
       <path d="M 47.59375 33 
Q 47.59375 26.296875 46.296875 20.34375 
Q 45 14.40625 42.453125 9.40625 
Q 39.90625 4.40625 35.40625 1.5 
Q 30.90625 -1.40625 25 -1.40625 
Q 18.90625 -1.40625 14.296875 1.6875 
Q 9.703125 4.796875 7.203125 10 
Q 4.703125 15.203125 3.546875 21.09375 
Q 2.40625 27 2.40625 33.59375 
Q 2.40625 42.90625 4.703125 50.34375 
Q 7 57.796875 12.34375 62.6875 
Q 17.703125 67.59375 25.40625 67.59375 
Q 35.203125 67.59375 41.390625 58 
Q 47.59375 48.40625 47.59375 33 
z
M 38 32.5 
Q 38 48.296875 34.640625 56.640625 
Q 31.296875 65 24.796875 65 
Q 18.59375 65 15.296875 56.59375 
Q 12 48.203125 12 32.90625 
Q 12 17.5 15.296875 9.34375 
Q 18.59375 1.203125 25 1.203125 
Q 31.296875 1.203125 34.640625 9.34375 
Q 38 17.5 38 32.5 
z
" id="STIXGeneral-Regular-30"/>
      </defs>
      <g transform="translate(59.294893 253.691562)scale(0.14 -0.14)">
       <use xlink:href="#STIXGeneral-Regular-30"/>
      </g>
     </g>
    </g>
    <g id="xtick_2">
     <g id="line2d_2">
      <g>
       <use style="stroke:#000000;stroke-width:0.8;" x="152.687657" xlink:href="#m30e2ead746" y="240.63"/>
      </g>
     </g>
     <g id="text_2">
      <!-- 2 -->
      <defs>
       <path d="M 47.40625 13.703125 
L 42 0 
L 2.90625 0 
L 2.90625 1.203125 
L 20.703125 20.09375 
Q 27.703125 27.40625 30.703125 33.5 
Q 33.703125 39.59375 33.703125 46.09375 
Q 33.703125 52.796875 30 56.5 
Q 26.296875 60.203125 19.796875 60.203125 
Q 14.40625 60.203125 11.25 57.390625 
Q 8.09375 54.59375 5.09375 47.203125 
L 3 47.703125 
Q 4.703125 57 9.84375 62.296875 
Q 15 67.59375 23.796875 67.59375 
Q 32.09375 67.59375 37.1875 62.59375 
Q 42.296875 57.59375 42.296875 50 
Q 42.296875 38.703125 29.5 25.203125 
L 13 7.59375 
L 36.40625 7.59375 
Q 39.703125 7.59375 41.640625 8.890625 
Q 43.59375 10.203125 46 14.296875 
z
" id="STIXGeneral-Regular-32"/>
      </defs>
      <g transform="translate(149.187657 253.691562)scale(0.14 -0.14)">
       <use xlink:href="#STIXGeneral-Regular-32"/>
      </g>
     </g>
    </g>
    <g id="xtick_3">
     <g id="line2d_3">
      <g>
       <use style="stroke:#000000;stroke-width:0.8;" x="242.580421" xlink:href="#m30e2ead746" y="240.63"/>
      </g>
     </g>
     <g id="text_3">
      <!-- 4 -->
      <defs>
       <path d="M 47.296875 16.703125 
L 37 16.703125 
L 37 0 
L 29.203125 0 
L 29.203125 16.703125 
L 1.203125 16.703125 
L 1.203125 23.09375 
L 32.59375 67.59375 
L 37 67.59375 
L 37 23.09375 
L 47.296875 23.09375 
z
M 29.203125 23.09375 
L 29.203125 57.40625 
L 5.203125 23.09375 
z
" id="STIXGeneral-Regular-34"/>
      </defs>
      <g transform="translate(239.080421 253.691562)scale(0.14 -0.14)">
       <use xlink:href="#STIXGeneral-Regular-34"/>
      </g>
     </g>
    </g>
    <g id="xtick_4">
     <g id="line2d_4">
      <g>
       <use style="stroke:#000000;stroke-width:0.8;" x="332.473185" xlink:href="#m30e2ead746" y="240.63"/>
      </g>
     </g>
     <g id="text_4">
      <!-- 6 -->
      <defs>
       <path d="M 44.59375 68.40625 
L 44.796875 66.796875 
Q 33 64.90625 25.09375 57.25 
Q 17.203125 49.59375 15.203125 38.296875 
Q 21 42.796875 27.90625 42.796875 
Q 36.703125 42.796875 41.75 37.1875 
Q 46.796875 31.59375 46.796875 21.90625 
Q 46.796875 12.09375 41.703125 5.90625 
Q 35.796875 -1.40625 25.796875 -1.40625 
Q 13.59375 -1.40625 8.09375 8.703125 
Q 3.40625 17.296875 3.40625 27.90625 
Q 3.40625 44.296875 14.296875 55.5 
Q 20.5 61.90625 27.046875 64.546875 
Q 33.59375 67.203125 44.59375 68.40625 
z
M 37.796875 18.796875 
Q 37.796875 38.203125 24.296875 38.203125 
Q 19.296875 38.203125 16 35.546875 
Q 12.703125 32.90625 12.703125 26.59375 
Q 12.703125 14.90625 16.34375 8.15625 
Q 20 1.40625 26.90625 1.40625 
Q 32.203125 1.40625 35 6.15625 
Q 37.796875 10.90625 37.796875 18.796875 
z
" id="STIXGeneral-Regular-36"/>
      </defs>
      <g transform="translate(328.973185 253.691562)scale(0.14 -0.14)">
       <use xlink:href="#STIXGeneral-Regular-36"/>
      </g>
     </g>
    </g>
    <g id="text_5">
     <!-- velocity (km/s) -->
     <defs>
      <path d="M 47.703125 45 
L 47.703125 43.5 
Q 45.40625 43.296875 44.296875 42 
Q 43.203125 40.703125 41.203125 35.703125 
L 28.40625 3.59375 
Q 26.40625 -1.40625 25.59375 -1.40625 
Q 24.796875 -1.40625 23.796875 1.203125 
Q 23.59375 1.5 23.390625 2.203125 
Q 23.203125 2.90625 23 3.296875 
L 11 32 
Q 7.796875 39.59375 6.296875 41.4375 
Q 4.796875 43.296875 1.90625 43.5 
L 1.90625 45 
L 21.5 45 
L 21.5 43.5 
Q 18.90625 43.296875 17.90625 42.6875 
Q 16.90625 42.09375 16.90625 40.796875 
Q 16.90625 39.203125 17.796875 37 
L 28 11.40625 
L 37.90625 37.296875 
Q 38.5 38.796875 38.5 40.296875 
Q 38.5 43.09375 33.796875 43.5 
L 33.796875 45 
z
" id="STIXGeneral-Regular-76"/>
      <path d="M 40.796875 16.40625 
L 42.40625 15.703125 
Q 36.40625 -1 21.5 -1 
Q 12.703125 -1 7.59375 5.140625 
Q 2.5 11.296875 2.5 21.703125 
Q 2.5 32.40625 8.203125 39.203125 
Q 13.90625 46 23.203125 46 
Q 32.203125 46 37.09375 39.09375 
Q 40 35.09375 40.5 27.703125 
L 9.703125 27.703125 
Q 10.09375 21.40625 10.9375 18.09375 
Q 11.796875 14.796875 14.296875 11.40625 
Q 18.5 5.90625 25.40625 5.90625 
Q 30.296875 5.90625 33.640625 8.296875 
Q 37 10.703125 40.796875 16.40625 
z
M 9.90625 30.90625 
L 30.296875 30.90625 
Q 29.40625 37.203125 27.34375 39.796875 
Q 25.296875 42.40625 20.5 42.40625 
Q 16.296875 42.40625 13.5 39.453125 
Q 10.703125 36.5 9.90625 30.90625 
z
" id="STIXGeneral-Regular-65"/>
      <path d="M 25.703125 0 
L 2.09375 0 
L 2.09375 1.5 
Q 6.796875 1.90625 8.296875 3.453125 
Q 9.796875 5 9.796875 9.203125 
L 9.796875 56.09375 
Q 9.796875 59.703125 8.890625 61.09375 
Q 8 62.5 5.59375 62.5 
Q 3.5 62.5 1.90625 62.296875 
L 1.90625 63.90625 
Q 11.40625 66.203125 17.703125 68.296875 
L 18.203125 67.90625 
L 18.203125 8.703125 
Q 18.203125 4.5 19.59375 3.140625 
Q 21 1.796875 25.703125 1.5 
z
" id="STIXGeneral-Regular-6c"/>
      <path d="M 47 23.09375 
Q 47 12.59375 40.75 5.796875 
Q 34.5 -1 24.5 -1 
Q 15.296875 -1 9.09375 5.75 
Q 2.90625 12.5 2.90625 22.796875 
Q 2.90625 33.203125 9.09375 39.59375 
Q 15.296875 46 25.40625 46 
Q 34.703125 46 40.84375 39.640625 
Q 47 33.296875 47 23.09375 
z
M 38 20.40625 
Q 38 31.796875 33 38.203125 
Q 29 43.203125 23.5 43.203125 
Q 18.296875 43.203125 15.09375 38.953125 
Q 11.90625 34.703125 11.90625 27.296875 
Q 11.90625 14.5 17.203125 6.796875 
Q 20.59375 1.796875 26.203125 1.796875 
Q 31.703125 1.796875 34.84375 6.75 
Q 38 11.703125 38 20.40625 
z
" id="STIXGeneral-Regular-6f"/>
      <path d="M 39.796875 15.59375 
L 41.203125 14.703125 
Q 36.90625 6.296875 33 3.203125 
Q 27.90625 -1 21.5 -1 
Q 13.203125 -1 7.84375 5.25 
Q 2.5 11.5 2.5 21.203125 
Q 2.5 33.90625 10.90625 40.90625 
Q 17.09375 46 24.40625 46 
Q 30.703125 46 35.25 42.953125 
Q 39.796875 39.90625 39.796875 35.703125 
Q 39.796875 34 38.390625 32.75 
Q 37 31.5 35.09375 31.5 
Q 31.59375 31.5 30.296875 36.09375 
L 29.703125 38.296875 
Q 28.90625 41.09375 27.703125 42.09375 
Q 26.5 43.09375 23.796875 43.09375 
Q 17.703125 43.09375 13.953125 38.296875 
Q 10.203125 33.5 10.203125 25.703125 
Q 10.203125 17.09375 14.5 11.640625 
Q 18.796875 6.203125 25.703125 6.203125 
Q 30 6.203125 33.09375 8.25 
Q 36.203125 10.296875 39.796875 15.59375 
z
" id="STIXGeneral-Regular-63"/>
      <path d="M 18 63.203125 
Q 18 61 16.5 59.546875 
Q 15 58.09375 12.796875 58.09375 
Q 10.703125 58.09375 9.25 59.546875 
Q 7.796875 61 7.796875 63.203125 
Q 7.796875 65.296875 9.296875 66.796875 
Q 10.796875 68.296875 12.90625 68.296875 
Q 15.09375 68.296875 16.546875 66.796875 
Q 18 65.296875 18 63.203125 
z
M 25.296875 0 
L 1.59375 0 
L 1.59375 1.5 
Q 6.796875 1.796875 8.140625 3.296875 
Q 9.5 4.796875 9.5 10.40625 
L 9.5 33.09375 
Q 9.5 36.59375 8.796875 38 
Q 8.09375 39.40625 6.203125 39.40625 
Q 3.796875 39.40625 2 38.90625 
L 2 40.5 
L 17.5 46 
L 17.90625 45.59375 
L 17.90625 10.5 
Q 17.90625 4.90625 19.15625 3.40625 
Q 20.40625 1.90625 25.296875 1.5 
z
" id="STIXGeneral-Regular-69"/>
      <path d="M 26.59375 7.703125 
L 27.90625 6.59375 
Q 23.09375 -1 15.796875 -1 
Q 7 -1 7 11.703125 
L 7 41.796875 
L 1.703125 41.796875 
Q 1.296875 42.09375 1.296875 42.5 
Q 1.296875 43.296875 3 44.40625 
Q 6.796875 46.59375 12.703125 55.09375 
Q 12.90625 55.40625 13.65625 56.34375 
Q 14.40625 57.296875 14.703125 57.90625 
Q 15.40625 57.90625 15.40625 56.59375 
L 15.40625 45 
L 25.5 45 
L 25.5 41.796875 
L 15.40625 41.796875 
L 15.40625 13.203125 
Q 15.40625 8.40625 16.59375 6.296875 
Q 17.796875 4.203125 20.59375 4.203125 
Q 23.59375 4.203125 26.59375 7.703125 
z
" id="STIXGeneral-Regular-74"/>
      <path d="M 47.5 45 
L 47.5 43.5 
Q 45.703125 43.296875 44.59375 42.1875 
Q 43.5 41.09375 42.5 38.40625 
L 27.5 -2.5 
Q 23.59375 -13.09375 19.640625 -17.4375 
Q 15.703125 -21.796875 10 -21.796875 
Q 6.796875 -21.796875 4.890625 -20.140625 
Q 3 -18.5 3 -16 
Q 3 -14.09375 4.25 -12.75 
Q 5.5 -11.40625 7.296875 -11.40625 
Q 10.203125 -11.40625 12.5 -12.703125 
Q 13.796875 -13.40625 15.09375 -13.40625 
Q 17.203125 -13.40625 20.09375 -9 
Q 21.5 -7 22.796875 -3.296875 
Q 24.09375 0.40625 24.09375 1.796875 
Q 24.09375 3.09375 19.90625 11.90625 
L 6.703125 40.09375 
Q 5.40625 43 1.40625 43.59375 
L 1.40625 45 
L 21.90625 45 
L 21.90625 43.5 
Q 18.703125 43.40625 17.453125 42.796875 
Q 16.203125 42.203125 16.203125 40.796875 
Q 16.203125 39.703125 17.5 36.703125 
L 28.703125 11.703125 
L 38.40625 39.296875 
Q 38.796875 40.203125 38.796875 41.09375 
Q 38.796875 43.5 34.203125 43.5 
L 34.203125 45 
z
" id="STIXGeneral-Regular-79"/>
      <path id="STIXGeneral-Regular-20"/>
      <path d="M 30.40625 -16.09375 
L 29.203125 -17.703125 
Q 17.59375 -11.09375 11.1875 0.5 
Q 4.796875 12.09375 4.796875 25.203125 
Q 4.796875 52.90625 29.5 67.59375 
L 30.40625 66 
Q 20.203125 57.296875 16.796875 48.84375 
Q 13.40625 40.40625 13.40625 25.5 
Q 13.40625 10.703125 16.90625 1.5 
Q 20.40625 -7.703125 30.40625 -16.09375 
z
" id="STIXGeneral-Regular-28"/>
      <path d="M 50.5 0 
L 28.703125 0 
L 28.703125 1.5 
L 30.59375 1.5 
Q 32.703125 1.5 32.703125 3 
Q 32.703125 3.90625 31.59375 5.296875 
L 16.59375 25.09375 
L 16.59375 6.703125 
Q 16.59375 4.09375 17.84375 2.890625 
Q 19.09375 1.703125 22.09375 1.59375 
L 24.09375 1.5 
L 24.09375 0 
L 0.703125 0 
L 0.703125 1.5 
Q 6.09375 2.40625 7.140625 3.34375 
Q 8.203125 4.296875 8.203125 8.203125 
L 8.203125 56.40625 
Q 8.203125 60 7.296875 61.25 
Q 6.40625 62.5 3.90625 62.5 
Q 3.296875 62.5 0.703125 62.296875 
L 0.703125 63.90625 
L 3.703125 64.703125 
Q 9.703125 66.296875 16.203125 68.296875 
L 16.59375 68.09375 
L 16.59375 26.09375 
L 30.296875 38.296875 
Q 32.59375 40.40625 32.59375 41.796875 
Q 32.59375 42.796875 31.546875 43.140625 
Q 30.5 43.5 27.59375 43.59375 
L 27.59375 45 
L 48 45 
L 48 43.5 
Q 43 43.5 39.140625 41.34375 
Q 35.296875 39.203125 26.40625 30.90625 
L 23.5 28.203125 
L 38.796875 8.796875 
Q 44.203125 1.90625 50.5 1.5 
z
" id="STIXGeneral-Regular-6b"/>
      <path d="M 77.5 0 
L 55.703125 0 
L 55.703125 1.5 
Q 59.90625 1.90625 61.046875 3.25 
Q 62.203125 4.59375 62.203125 9 
L 62.203125 29.59375 
Q 62.203125 35.59375 60.453125 38.1875 
Q 58.703125 40.796875 54.5 40.796875 
Q 51 40.796875 48.546875 39.390625 
Q 46.09375 38 43.796875 34.703125 
L 43.796875 9.5 
Q 43.796875 4.703125 45.25 3.140625 
Q 46.703125 1.59375 51 1.5 
L 51 0 
L 28.59375 0 
L 28.59375 1.5 
Q 33 1.796875 34.203125 2.9375 
Q 35.40625 4.09375 35.40625 8.59375 
L 35.40625 29.703125 
Q 35.40625 40.796875 28.90625 40.796875 
Q 26.09375 40.796875 22.9375 39.546875 
Q 19.796875 38.296875 18.296875 36.5 
Q 17 35 17 34.796875 
L 17 7 
Q 17 3.796875 18.390625 2.75 
Q 19.796875 1.703125 23.796875 1.5 
L 23.796875 0 
L 1.59375 0 
L 1.59375 1.5 
Q 5.796875 1.59375 7.1875 3.046875 
Q 8.59375 4.5 8.59375 8.796875 
L 8.59375 33.59375 
Q 8.59375 37.296875 7.796875 38.75 
Q 7 40.203125 5.09375 40.203125 
Q 3.59375 40.203125 1.90625 39.796875 
L 1.90625 41.5 
Q 8.703125 43.40625 15.796875 46 
L 16.59375 45.703125 
L 16.59375 38.296875 
L 16.796875 38.296875 
Q 21.296875 43 24.75 44.5 
Q 28.203125 46 32.09375 46 
Q 40 46 42.703125 37.59375 
Q 50.5 46 59 46 
Q 70.59375 46 70.59375 28 
L 70.59375 7.703125 
Q 70.59375 4.40625 71.59375 3.15625 
Q 72.59375 1.90625 74.90625 1.703125 
L 77.5 1.5 
z
" id="STIXGeneral-Regular-6d"/>
      <path d="M 28.703125 67.59375 
L 5.90625 -1.40625 
L -0.90625 -1.40625 
L 22 67.59375 
z
" id="STIXGeneral-Regular-2f"/>
      <path d="M 15.59375 30.09375 
L 26 23.796875 
Q 31 20.796875 32.890625 18.1875 
Q 34.796875 15.59375 34.796875 11.5 
Q 34.796875 6.5 30.640625 2.75 
Q 26.5 -1 20.796875 -1 
Q 16.09375 -1 13.5 -0.09375 
Q 10.796875 0.796875 8.90625 0.796875 
Q 7.203125 0.796875 6.5 -0.40625 
L 5.203125 -0.40625 
L 5.203125 15.296875 
L 6.796875 15.296875 
Q 8.40625 8 11.40625 4.59375 
Q 14.40625 1.203125 19.5 1.203125 
Q 23.203125 1.203125 25.5 3.296875 
Q 27.796875 5.40625 27.796875 8.59375 
Q 27.796875 13.203125 22.5 16.09375 
L 17.09375 19.09375 
Q 5.09375 25.796875 5.09375 33.59375 
Q 5.09375 39.40625 8.84375 42.65625 
Q 12.59375 45.90625 18.90625 45.90625 
Q 23.296875 45.90625 25.59375 44.796875 
Q 27.40625 44 28.40625 44 
Q 29.09375 44 30 45 
L 31.09375 45 
L 31.59375 31.40625 
L 30.09375 31.40625 
Q 28.40625 38.203125 25.84375 40.953125 
Q 23.296875 43.703125 18.796875 43.703125 
Q 15.40625 43.703125 13.34375 42 
Q 11.296875 40.296875 11.296875 36.90625 
Q 11.296875 35.203125 12.4375 33.25 
Q 13.59375 31.296875 15.59375 30.09375 
z
" id="STIXGeneral-Regular-73"/>
      <path d="M 2.90625 66 
L 4.09375 67.59375 
Q 15.5 60.796875 22 49.1875 
Q 28.5 37.59375 28.5 24.703125 
Q 28.5 -2.59375 3.796875 -17.703125 
L 2.90625 -16.09375 
Q 13.203125 -7.59375 16.546875 0.84375 
Q 19.90625 9.296875 19.90625 24.40625 
Q 19.90625 39.59375 16.546875 48.75 
Q 13.203125 57.90625 2.90625 66 
z
" id="STIXGeneral-Regular-29"/>
     </defs>
     <g transform="translate(193.914844 270.291562)scale(0.14 -0.14)">
      <use xlink:href="#STIXGeneral-Regular-76"/>
      <use x="49.999985" xlink:href="#STIXGeneral-Regular-65"/>
      <use x="94.399979" xlink:href="#STIXGeneral-Regular-6c"/>
      <use x="122.199966" xlink:href="#STIXGeneral-Regular-6f"/>
      <use x="172.199951" xlink:href="#STIXGeneral-Regular-63"/>
      <use x="216.599945" xlink:href="#STIXGeneral-Regular-69"/>
      <use x="244.399933" xlink:href="#STIXGeneral-Regular-74"/>
      <use x="272.199921" xlink:href="#STIXGeneral-Regular-79"/>
      <use x="322.199905" xlink:href="#STIXGeneral-Regular-20"/>
      <use x="347.19989" xlink:href="#STIXGeneral-Regular-28"/>
      <use x="380.499878" xlink:href="#STIXGeneral-Regular-6b"/>
      <use x="430.499863" xlink:href="#STIXGeneral-Regular-6d"/>
      <use x="508.29985" xlink:href="#STIXGeneral-Regular-2f"/>
      <use x="536.099838" xlink:href="#STIXGeneral-Regular-73"/>
      <use x="574.999832" xlink:href="#STIXGeneral-Regular-29"/>
     </g>
    </g>
   </g>
   <g id="matplotlib.axis_2">
    <g id="ytick_1">
     <g id="line2d_5">
      <defs>
       <path d="M 0 0 
L 5 0 
" id="mda848e4b37" style="stroke:#000000;stroke-width:0.8;"/>
      </defs>
      <g>
       <use style="stroke:#000000;stroke-width:0.8;" x="56.11125" xlink:href="#mda848e4b37" y="230.350781"/>
      </g>
     </g>
     <g id="text_6">
      <!-- 0 -->
      <g transform="translate(45.61125 235.131562)scale(0.14 -0.14)">
       <use xlink:href="#STIXGeneral-Regular-30"/>
      </g>
     </g>
    </g>
    <g id="ytick_2">
     <g id="line2d_6">
      <g>
       <use style="stroke:#000000;stroke-width:0.8;" x="56.11125" xlink:href="#mda848e4b37" y="199.958649"/>
      </g>
     </g>
     <g id="text_7">
      <!-- 20 -->
      <g transform="translate(38.61125 204.73943)scale(0.14 -0.14)">
       <use xlink:href="#STIXGeneral-Regular-32"/>
       <use x="49.999985" xlink:href="#STIXGeneral-Regular-30"/>
      </g>
     </g>
    </g>
    <g id="ytick_3">
     <g id="line2d_7">
      <g>
       <use style="stroke:#000000;stroke-width:0.8;" x="56.11125" xlink:href="#mda848e4b37" y="169.566517"/>
      </g>
     </g>
     <g id="text_8">
      <!-- 40 -->
      <g transform="translate(38.61125 174.347298)scale(0.14 -0.14)">
       <use xlink:href="#STIXGeneral-Regular-34"/>
       <use x="49.999985" xlink:href="#STIXGeneral-Regular-30"/>
      </g>
     </g>
    </g>
    <g id="ytick_4">
     <g id="line2d_8">
      <g>
       <use style="stroke:#000000;stroke-width:0.8;" x="56.11125" xlink:href="#mda848e4b37" y="139.174384"/>
      </g>
     </g>
     <g id="text_9">
      <!-- 60 -->
      <g transform="translate(38.61125 143.955166)scale(0.14 -0.14)">
       <use xlink:href="#STIXGeneral-Regular-36"/>
       <use x="49.999985" xlink:href="#STIXGeneral-Regular-30"/>
      </g>
     </g>
    </g>
    <g id="ytick_5">
     <g id="line2d_9">
      <g>
       <use style="stroke:#000000;stroke-width:0.8;" x="56.11125" xlink:href="#mda848e4b37" y="108.782252"/>
      </g>
     </g>
     <g id="text_10">
      <!-- 80 -->
      <defs>
       <path d="M 44.5 15.5 
Q 44.5 7.796875 39.140625 3.1875 
Q 33.796875 -1.40625 24.796875 -1.40625 
Q 16.40625 -1.40625 11 3.1875 
Q 5.59375 7.796875 5.59375 14.90625 
Q 5.59375 20.203125 8.1875 23.953125 
Q 10.796875 27.703125 18.59375 33.203125 
Q 11.09375 39.40625 8.640625 43.203125 
Q 6.203125 47 6.203125 52 
Q 6.203125 59.09375 11.640625 63.34375 
Q 17.09375 67.59375 25.59375 67.59375 
Q 32.90625 67.59375 37.65625 63.4375 
Q 42.40625 59.296875 42.40625 53.296875 
Q 42.40625 47.796875 39.546875 44.5 
Q 36.703125 41.203125 29 37.09375 
Q 38 31.09375 41.25 26.390625 
Q 44.5 21.703125 44.5 15.5 
z
M 35.5 53.296875 
Q 35.5 58.5 32.59375 61.640625 
Q 29.703125 64.796875 24.59375 64.796875 
Q 19.5 64.796875 16.546875 62.140625 
Q 13.59375 59.5 13.59375 54.890625 
Q 13.59375 50.296875 16.546875 46.546875 
Q 19.5 42.796875 26.09375 38.90625 
Q 31.203125 41.90625 33.34375 45.25 
Q 35.5 48.59375 35.5 53.296875 
z
M 27.09375 27.203125 
L 21.203125 31.203125 
Q 16.796875 27.59375 15 24.140625 
Q 13.203125 20.703125 13.203125 15.796875 
Q 13.203125 9 16.640625 5.203125 
Q 20.09375 1.40625 25.90625 1.40625 
Q 30.796875 1.40625 33.84375 4.453125 
Q 36.90625 7.5 36.90625 12.40625 
Q 36.90625 16.90625 34.59375 20.296875 
Q 32.296875 23.703125 27.09375 27.203125 
z
" id="STIXGeneral-Regular-38"/>
      </defs>
      <g transform="translate(38.61125 113.563033)scale(0.14 -0.14)">
       <use xlink:href="#STIXGeneral-Regular-38"/>
       <use x="49.999985" xlink:href="#STIXGeneral-Regular-30"/>
      </g>
     </g>
    </g>
    <g id="ytick_6">
     <g id="line2d_10">
      <g>
       <use style="stroke:#000000;stroke-width:0.8;" x="56.11125" xlink:href="#mda848e4b37" y="78.39012"/>
      </g>
     </g>
     <g id="text_11">
      <!-- 100 -->
      <defs>
       <path d="M 39.40625 0 
L 11.796875 0 
L 11.796875 1.5 
Q 17.296875 1.796875 19.296875 3.546875 
Q 21.296875 5.296875 21.296875 9.5 
L 21.296875 54.40625 
Q 21.296875 59.296875 18.296875 59.296875 
Q 16.90625 59.296875 13.796875 58.09375 
L 11.09375 57.09375 
L 11.09375 58.5 
L 29 67.59375 
L 29.90625 67.296875 
L 29.90625 7.59375 
Q 29.90625 4.296875 31.90625 2.890625 
Q 33.90625 1.5 39.40625 1.5 
z
" id="STIXGeneral-Regular-31"/>
      </defs>
      <g transform="translate(31.61125 83.170901)scale(0.14 -0.14)">
       <use xlink:href="#STIXGeneral-Regular-31"/>
       <use x="49.999985" xlink:href="#STIXGeneral-Regular-30"/>
       <use x="99.999969" xlink:href="#STIXGeneral-Regular-30"/>
      </g>
     </g>
    </g>
    <g id="ytick_7">
     <g id="line2d_11">
      <g>
       <use style="stroke:#000000;stroke-width:0.8;" x="56.11125" xlink:href="#mda848e4b37" y="47.997988"/>
      </g>
     </g>
     <g id="text_12">
      <!-- 120 -->
      <g transform="translate(31.61125 52.778769)scale(0.14 -0.14)">
       <use xlink:href="#STIXGeneral-Regular-31"/>
       <use x="49.999985" xlink:href="#STIXGeneral-Regular-32"/>
       <use x="99.999969" xlink:href="#STIXGeneral-Regular-30"/>
      </g>
     </g>
    </g>
    <g id="ytick_8">
     <g id="line2d_12">
      <g>
       <use style="stroke:#000000;stroke-width:0.8;" x="56.11125" xlink:href="#mda848e4b37" y="17.605856"/>
      </g>
     </g>
     <g id="text_13">
      <!-- 140 -->
      <g transform="translate(31.61125 22.386637)scale(0.14 -0.14)">
       <use xlink:href="#STIXGeneral-Regular-31"/>
       <use x="49.999985" xlink:href="#STIXGeneral-Regular-34"/>
       <use x="99.999969" xlink:href="#STIXGeneral-Regular-30"/>
      </g>
     </g>
    </g>
    <g id="text_14">
     <!-- altitude (km) -->
     <defs>
      <path d="M 44.203125 6.59375 
L 44.203125 3.796875 
Q 40.40625 -1 35.203125 -1 
Q 29.5 -1 28.796875 6.296875 
L 28.703125 6.296875 
Q 22.296875 -1 14.203125 -1 
Q 9.5 -1 6.59375 1.75 
Q 3.703125 4.5 3.703125 9.40625 
Q 3.703125 16.40625 10.703125 21.09375 
Q 15.5 24.296875 28.703125 29.203125 
L 28.703125 34.59375 
Q 28.703125 39.09375 26.546875 41.34375 
Q 24.40625 43.59375 20.90625 43.59375 
Q 17.90625 43.59375 15.90625 42.140625 
Q 13.90625 40.703125 13.90625 38.703125 
Q 13.90625 37.796875 14.203125 36.6875 
Q 14.5 35.59375 14.5 34.5 
Q 14.5 33 13.140625 31.703125 
Q 11.796875 30.40625 9.90625 30.40625 
Q 8.203125 30.40625 6.890625 31.703125 
Q 5.59375 33 5.59375 35 
Q 5.59375 39.796875 10.703125 43 
Q 15.40625 46 22.203125 46 
Q 30.296875 46 34 41.5 
Q 35.796875 39.40625 36.296875 37.25 
Q 36.796875 35.09375 36.796875 30.40625 
L 36.796875 11.296875 
Q 36.796875 4.703125 39.90625 4.703125 
Q 41.90625 4.703125 44.203125 6.59375 
z
M 28.703125 12.703125 
L 28.703125 26.796875 
Q 19.5 23.59375 15.90625 20.203125 
Q 12.5 17.09375 12.5 12.5 
Q 12.5 8.703125 14.390625 6.75 
Q 16.296875 4.796875 19.40625 4.796875 
Q 22.703125 4.796875 25.203125 6.40625 
Q 27.296875 7.90625 28 9.203125 
Q 28.703125 10.5 28.703125 12.703125 
z
" id="STIXGeneral-Regular-61"/>
      <path d="M 48 5 
L 48 3.59375 
Q 40.203125 1.5 34.296875 -0.90625 
L 33.796875 -0.59375 
L 33.796875 7.59375 
L 33.59375 7.59375 
Q 27.296875 -1 19.296875 -1 
Q 13.59375 -1 10.34375 2.5 
Q 7.09375 6 7.09375 11.796875 
L 7.09375 36.90625 
Q 7.09375 40.59375 5.796875 42 
Q 4.5 43.40625 0.90625 43.59375 
L 0.90625 45 
L 15.5 45 
L 15.5 12.703125 
Q 15.5 9.296875 17.546875 7.046875 
Q 19.59375 4.796875 22.59375 4.796875 
Q 27.5 4.796875 31 7.90625 
Q 32.296875 9.09375 32.796875 10.140625 
Q 33.296875 11.203125 33.296875 13.703125 
L 33.296875 36.796875 
Q 33.296875 40.703125 31.890625 41.84375 
Q 30.5 43 25.90625 43.296875 
L 25.90625 45 
L 41.703125 45 
L 41.703125 10.703125 
Q 41.703125 7.203125 42.84375 6.09375 
Q 44 5 47.40625 5 
z
" id="STIXGeneral-Regular-75"/>
      <path d="M 49.09375 4.203125 
L 34.40625 -1 
L 34 -0.703125 
L 34 5.703125 
Q 29.203125 -1 21.203125 -1 
Q 12.90625 -1 7.796875 4.953125 
Q 2.703125 10.90625 2.703125 20.5 
Q 2.703125 31.09375 8.796875 38.546875 
Q 14.90625 46 23.5 46 
Q 28.90625 46 34 41.703125 
L 34 57.296875 
Q 34 60.40625 33.09375 61.40625 
Q 32.203125 62.40625 29.40625 62.40625 
Q 28 62.40625 27.203125 62.296875 
L 27.203125 63.90625 
Q 36.296875 66.296875 41.90625 68.296875 
L 42.40625 68.09375 
L 42.40625 11.40625 
Q 42.40625 7.90625 43.25 6.796875 
Q 44.09375 5.703125 46.796875 5.703125 
Q 47.40625 5.703125 49.09375 5.796875 
z
M 34 10.203125 
L 34 33.203125 
Q 34 37.203125 30.953125 40.203125 
Q 27.90625 43.203125 23.796875 43.203125 
Q 18.09375 43.203125 14.6875 38.09375 
Q 11.296875 33 11.296875 24.5 
Q 11.296875 15.296875 15.046875 9.75 
Q 18.796875 4.203125 25.09375 4.203125 
Q 29.796875 4.203125 32.5 7.40625 
Q 34 9.09375 34 10.203125 
z
" id="STIXGeneral-Regular-64"/>
     </defs>
     <g transform="translate(24.572812 164.232344)rotate(-90)scale(0.14 -0.14)">
      <use xlink:href="#STIXGeneral-Regular-61"/>
      <use x="44.399994" xlink:href="#STIXGeneral-Regular-6c"/>
      <use x="72.199982" xlink:href="#STIXGeneral-Regular-74"/>
      <use x="99.999969" xlink:href="#STIXGeneral-Regular-69"/>
      <use x="127.799957" xlink:href="#STIXGeneral-Regular-74"/>
      <use x="155.599945" xlink:href="#STIXGeneral-Regular-75"/>
      <use x="205.59993" xlink:href="#STIXGeneral-Regular-64"/>
      <use x="255.599915" xlink:href="#STIXGeneral-Regular-65"/>
      <use x="299.999908" xlink:href="#STIXGeneral-Regular-20"/>
      <use x="324.999893" xlink:href="#STIXGeneral-Regular-28"/>
      <use x="358.299881" xlink:href="#STIXGeneral-Regular-6b"/>
      <use x="408.299866" xlink:href="#STIXGeneral-Regular-6d"/>
      <use x="486.099854" xlink:href="#STIXGeneral-Regular-29"/>
     </g>
    </g>
   </g>
   <g id="line2d_13">
    <path clip-path="url(#p725aec77ae)" d="M 399.896607 25.494908 
L 400.461237 76.554082 
L 400.436742 93.176032 
L 400.213571 103.809049 
L 399.831843 111.773985 
L 399.327074 117.939072 
L 398.69898 123.076225 
L 397.914854 127.672121 
L 397.040041 131.537612 
L 396.002739 135.123921 
L 394.884225 138.234786 
L 393.542185 141.293917 
L 392.056971 144.100951 
L 390.448876 146.664495 
L 388.592967 149.18528 
L 386.635684 151.472962 
L 384.420752 153.721764 
L 381.925315 155.930398 
L 379.126839 158.097509 
L 376.003739 160.221688 
L 372.536099 162.301489 
L 368.706465 164.335445 
L 364.500701 166.322089 
L 359.508569 168.41923 
L 354.057408 170.457405 
L 348.149199 172.434984 
L 341.287949 174.495247 
L 333.391682 176.621064 
L 324.400371 178.793981 
L 314.288592 180.994539 
L 303.078238 183.202761 
L 290.197403 185.510572 
L 275.111527 187.978927 
L 257.45817 190.633435 
L 235.391648 193.710921 
L 203.111892 197.956172 
L 162.157996 203.371698 
L 144.121688 205.982226 
L 130.722988 208.136587 
L 120.287843 210.030564 
L 111.928858 211.764234 
L 105.057174 213.41017 
L 99.375411 214.996387 
L 94.725204 216.518098 
L 90.819648 218.021798 
L 87.523041 219.521108 
L 84.684751 221.052738 
L 82.278781 222.599113 
L 80.203685 224.192648 
L 78.392356 225.863852 
L 76.821724 227.615935 
L 75.451486 229.475893 
L 74.892003 230.35542 
L 74.892003 230.35542 
" style="fill:none;stroke:#008000;stroke-linecap:square;stroke-width:1.2;"/>
   </g>
   <g id="line2d_14">
    <path clip-path="url(#p725aec77ae)" d="M 310.003003 25.370455 
L 310.747296 72.727273 
L 310.791463 88.900238 
L 310.607983 99.317931 
L 310.256466 107.024083 
L 309.762577 113.116462 
L 309.133867 118.1911 
L 308.374982 122.546235 
L 307.495485 126.337935 
L 306.495569 129.706947 
L 305.360172 132.781049 
L 304.05348 135.676677 
L 302.631299 138.300566 
L 301.053045 140.763567 
L 299.248081 143.166801 
L 297.284022 145.416801 
L 295.076878 147.610046 
L 292.611812 149.745786 
L 289.87604 151.823351 
L 286.727555 153.925007 
L 283.26678 155.962432 
L 279.333073 158.012889 
L 274.889801 160.068222 
L 269.907239 162.120286 
L 264.3658 164.161107 
L 258.049702 166.248927 
L 250.715315 168.429912 
L 242.341493 170.678174 
L 232.722069 173.024194 
L 221.221722 175.589231 
L 207.094747 178.498446 
L 187.084709 182.367451 
L 153.668069 188.819818 
L 140.510607 191.606823 
L 130.273305 193.997297 
L 121.881236 196.180326 
L 114.795868 198.248963 
L 108.718032 200.25208 
L 103.497105 202.202241 
L 98.939223 204.137689 
L 94.959206 206.064407 
L 91.433934 208.015707 
L 88.361242 209.965164 
L 85.609441 211.972428 
L 83.191013 214.00867 
L 81.045126 216.101979 
L 79.129694 218.278867 
L 77.416374 220.563565 
L 75.886173 222.976819 
L 74.511491 225.56229 
L 73.253578 228.408684 
L 72.50983 230.374669 
L 72.50983 230.374669 
" style="fill:none;stroke:#0000ff;stroke-linecap:square;stroke-width:1.2;"/>
   </g>
   <g id="line2d_15">
    <path clip-path="url(#p725aec77ae)" d="M 314.498716 25.43124 
L 315.419098 82.844502 
L 315.480239 99.985939 
L 315.306756 110.892664 
L 314.968887 118.847871 
L 314.493033 125.133199 
L 313.886599 130.376754 
L 313.135527 134.982787 
L 312.26625 138.971506 
L 311.267773 142.540218 
L 310.099275 145.875131 
L 308.841305 148.809086 
L 307.44714 151.523562 
L 305.823113 154.188634 
L 304.06845 156.638493 
L 302.066992 159.037381 
L 299.957849 161.226751 
L 297.5998 163.364646 
L 294.979133 165.447412 
L 292.084923 167.471308 
L 288.909848 169.432566 
L 285.193063 171.46019 
L 281.153394 173.407258 
L 276.500172 175.390751 
L 271.513342 177.273563 
L 265.885068 179.159676 
L 259.609297 181.024783 
L 252.707496 182.84385 
L 244.855708 184.67501 
L 236.133466 186.46729 
L 226.690366 188.170889 
L 216.74034 189.740729 
L 205.860833 191.22618 
L 194.801174 192.510273 
L 183.656395 193.581746 
L 172.849757 194.401497 
L 162.507626 194.965623 
L 152.937522 195.268616 
L 144.03098 195.329844 
L 135.769809 195.166424 
L 127.666513 194.781436 
L 118.134391 194.087599 
L 109.710201 193.530179 
L 105.939565 193.504167 
L 103.107569 193.698348 
L 100.727894 194.080072 
L 98.643865 194.637347 
L 96.746621 195.373493 
L 94.955944 196.308281 
L 93.230316 197.463034 
L 91.535724 198.866575 
L 89.824524 200.575323 
L 88.055857 202.66204 
L 86.211823 205.18836 
L 84.262106 208.243812 
L 82.204907 211.889273 
L 80.104827 216.06904 
L 78.088882 220.577135 
L 76.268384 225.191831 
L 74.685045 229.811692 
L 74.507599 230.376325 
L 74.507599 230.376325 
" style="fill:none;stroke:#000000;stroke-linecap:square;stroke-width:1.2;"/>
   </g>
   <g id="line2d_16">
    <path clip-path="url(#p725aec77ae)" d="M 354.94983 25.425996 
L 355.85562 90.752898 
L 355.875432 107.64349 
L 355.67808 118.234743 
L 355.322698 125.970384 
L 354.819107 132.186052 
L 354.184389 137.300384 
L 353.418059 141.677392 
L 352.521689 145.502832 
L 351.525466 148.811913 
L 350.366555 151.890574 
L 349.105749 154.625185 
L 347.704172 157.154578 
L 346.089533 159.6021 
L 344.336631 161.854284 
L 342.3586 164.026954 
L 340.142253 166.117479 
L 337.676852 168.12325 
L 334.954799 170.041744 
L 331.972276 171.870593 
L 328.560917 173.692065 
L 324.869202 175.410228 
L 320.714369 177.097599 
L 316.078975 178.737116 
L 310.958207 180.311552 
L 305.134212 181.860549 
L 298.848913 183.298888 
L 291.915864 184.655236 
L 284.403361 185.897238 
L 276.174521 187.025549 
L 267.615913 187.972417 
L 258.667628 188.736622 
L 249.538091 189.289344 
L 240.633637 189.607802 
L 231.918958 189.699084 
L 223.552312 189.56393 
L 215.792424 189.220172 
L 208.541094 188.681871 
L 201.731928 187.95584 
L 195.418148 187.061634 
L 189.459201 185.993372 
L 183.849038 184.763163 
L 178.354962 183.32965 
L 172.703296 181.620531 
L 164.964192 179.014942 
L 159.45692 177.256757 
L 156.369844 176.49773 
L 153.923327 176.117917 
L 151.816034 176.010471 
L 149.893652 176.132105 
L 148.075389 176.468045 
L 146.272026 177.029873 
L 144.440552 177.838103 
L 142.515335 178.936191 
L 140.401525 180.40557 
L 137.961399 182.38335 
L 134.89032 185.17606 
L 130.047315 189.922829 
L 120.395553 199.392053 
L 113.993244 205.319768 
L 106.043361 212.353518 
L 94.15364 222.871262 
L 89.581791 227.235805 
L 86.537093 230.379545 
L 86.537093 230.379545 
" style="fill:none;stroke:#ff0000;stroke-dasharray:7.68,1.92,1.2,1.92;stroke-dashoffset:0;stroke-width:1.2;"/>
   </g>
   <g id="patch_3">
    <path d="M 56.11125 240.63 
L 56.11125 15.12 
" style="fill:none;stroke:#000000;stroke-linecap:square;stroke-linejoin:miter;stroke-width:0.8;"/>
   </g>
   <g id="patch_4">
    <path d="M 416.88 240.63 
L 416.88 15.12 
" style="fill:none;stroke:#000000;stroke-linecap:square;stroke-linejoin:miter;stroke-width:0.8;"/>
   </g>
   <g id="patch_5">
    <path d="M 56.11125 240.63 
L 416.88 240.63 
" style="fill:none;stroke:#000000;stroke-linecap:square;stroke-linejoin:miter;stroke-width:0.8;"/>
   </g>
   <g id="patch_6">
    <path d="M 56.11125 15.12 
L 416.88 15.12 
" style="fill:none;stroke:#000000;stroke-linecap:square;stroke-linejoin:miter;stroke-width:0.8;"/>
   </g>
   <g id="legend_1">
    <g id="patch_7">
     <path d="M 65.91125 105.7 
L 179.155937 105.7 
Q 181.955938 105.7 181.955938 102.9 
L 181.955938 24.92 
Q 181.955938 22.12 179.155937 22.12 
L 65.91125 22.12 
Q 63.11125 22.12 63.11125 24.92 
L 63.11125 102.9 
Q 63.11125 105.7 65.91125 105.7 
z
" style="fill:#ffffff;opacity:0.8;stroke:#cccccc;stroke-linejoin:miter;"/>
    </g>
    <g id="line2d_17">
     <path d="M 68.71125 32.62 
L 96.71125 32.62 
" style="fill:none;stroke:#008000;stroke-linecap:square;stroke-width:1.2;"/>
    </g>
    <g id="line2d_18"/>
    <g id="text_15">
     <!-- Pathfinder -->
     <defs>
      <path d="M 1.59375 66.203125 
L 27.5 66.203125 
Q 41.703125 66.203125 49.203125 59.90625 
Q 54.203125 55.703125 54.203125 48 
Q 54.203125 40 48.5 34.90625 
Q 44.296875 31.09375 39.890625 29.9375 
Q 35.5 28.796875 27.09375 28.796875 
Q 24.203125 28.796875 20.203125 29.09375 
L 20.203125 11.203125 
Q 20.203125 5.5 21.84375 3.84375 
Q 23.5 2.203125 29.59375 1.90625 
L 29.59375 0 
L 1.59375 0 
L 1.59375 1.90625 
Q 7.40625 2.296875 8.703125 4 
Q 10 5.703125 10 12.203125 
L 10 55.09375 
Q 10 60.703125 8.546875 62.296875 
Q 7.09375 63.90625 1.59375 64.296875 
z
M 20.203125 58.90625 
L 20.203125 33.09375 
Q 23.59375 32.796875 26.296875 32.796875 
Q 34.40625 32.796875 38.84375 36.75 
Q 43.296875 40.703125 43.296875 47.5 
Q 43.296875 55.59375 38.6875 59.046875 
Q 34.09375 62.5 23.703125 62.5 
Q 21.59375 62.5 20.890625 61.75 
Q 20.203125 61 20.203125 58.90625 
z
" id="STIXGeneral-Regular-50"/>
      <path d="M 48.703125 0 
L 27.5 0 
L 27.5 1.5 
Q 31.90625 2 33.09375 3.5 
Q 34.296875 5 34.296875 10.203125 
L 34.296875 30 
Q 34.296875 40.59375 26.90625 40.59375 
Q 23.90625 40.59375 21.40625 39.1875 
Q 18.90625 37.796875 15.703125 34.296875 
L 15.703125 10.203125 
Q 15.703125 5 16.890625 3.5 
Q 18.09375 2 22.5 1.5 
L 22.5 0 
L 0.90625 0 
L 0.90625 1.5 
Q 5.203125 2.09375 6.25 3.5 
Q 7.296875 4.90625 7.296875 10.203125 
L 7.296875 57.296875 
Q 7.296875 60.5 6.34375 61.453125 
Q 5.40625 62.40625 2.203125 62.40625 
Q 1.296875 62.40625 1 62.296875 
L 1 63.90625 
L 3.703125 64.703125 
Q 11.40625 67 15.203125 68.296875 
L 15.703125 68 
L 15.703125 37.59375 
Q 19.203125 42.09375 22.59375 44.046875 
Q 26 46 30.40625 46 
Q 42.703125 46 42.703125 30.09375 
L 42.703125 10.203125 
Q 42.703125 5 43.640625 3.640625 
Q 44.59375 2.296875 48.703125 1.5 
z
" id="STIXGeneral-Regular-68"/>
      <path d="M 2.09375 45 
L 10.296875 45 
Q 10.40625 51 11.09375 54.34375 
Q 11.796875 57.703125 13.796875 61.09375 
Q 18 68.296875 27.90625 68.296875 
Q 32.40625 68.296875 35.34375 66.546875 
Q 38.296875 64.796875 38.296875 62.09375 
Q 38.296875 60.40625 37.09375 59.203125 
Q 35.90625 58 34.09375 58 
Q 31.703125 58 29.59375 61.59375 
Q 27.203125 65.5 24.296875 65.5 
Q 18.703125 65.5 18.703125 56.59375 
L 18.703125 45 
L 30.90625 45 
L 30.90625 41.796875 
L 18.703125 41.796875 
L 18.703125 10.40625 
Q 18.703125 4.796875 20.296875 3.25 
Q 21.90625 1.703125 28 1.5 
L 28 0 
L 2 0 
L 2 1.5 
Q 7.40625 1.796875 8.84375 3.34375 
Q 10.296875 4.90625 10.296875 10.40625 
L 10.296875 41.796875 
L 2.09375 41.796875 
z
" id="STIXGeneral-Regular-66"/>
      <path d="M 48.5 0 
L 27.703125 0 
L 27.796875 1.5 
Q 31.5 1.796875 32.75 3.640625 
Q 34 5.5 34 10.5 
L 34 30.40625 
Q 34 40.5 26.703125 40.5 
Q 24.203125 40.5 22 39.296875 
Q 19.796875 38.09375 16.40625 34.796875 
L 16.40625 7.203125 
Q 16.40625 4.203125 17.75 3 
Q 19.09375 1.796875 22.90625 1.5 
L 22.90625 0 
L 1.796875 0 
L 1.796875 1.5 
Q 5.59375 1.796875 6.796875 3.34375 
Q 8 4.90625 8 9.40625 
L 8 33.703125 
Q 8 37.40625 7.296875 38.796875 
Q 6.59375 40.203125 4.5 40.203125 
Q 2.5 40.203125 1.59375 39.796875 
L 1.59375 41.5 
Q 8.59375 43.5 15.296875 46 
L 16.09375 45.703125 
L 16.09375 37.90625 
L 16.203125 37.90625 
Q 23.296875 46 30.59375 46 
Q 36.296875 46 39.34375 42 
Q 42.40625 38 42.40625 30.59375 
L 42.40625 8.5 
Q 42.40625 4.5 43.59375 3.203125 
Q 44.796875 1.90625 48.5 1.5 
z
" id="STIXGeneral-Regular-6e"/>
      <path d="M 16 45.796875 
L 16 36.59375 
Q 19.796875 42 22.34375 44 
Q 24.90625 46 28 46 
Q 30.59375 46 32.046875 44.59375 
Q 33.5 43.203125 33.5 40.703125 
Q 33.5 38.59375 32.453125 37.390625 
Q 31.40625 36.203125 29.59375 36.203125 
Q 27.703125 36.203125 25.59375 38.203125 
Q 24 39.703125 23 39.703125 
Q 20.90625 39.703125 18.453125 36.796875 
Q 16 33.90625 16 31.5 
L 16 9 
Q 16 4.703125 17.703125 3.203125 
Q 19.40625 1.703125 24.5 1.5 
L 24.5 0 
L 0.5 0 
L 0.5 1.5 
Q 5.296875 2.40625 6.4375 3.5 
Q 7.59375 4.59375 7.59375 8.40625 
L 7.59375 33.40625 
Q 7.59375 36.703125 6.84375 38.046875 
Q 6.09375 39.40625 4.203125 39.40625 
Q 2.59375 39.40625 0.703125 39 
L 0.703125 40.59375 
Q 7 42.59375 15.5 46 
z
" id="STIXGeneral-Regular-72"/>
     </defs>
     <g transform="translate(107.91125 37.52)scale(0.14 -0.14)">
      <use xlink:href="#STIXGeneral-Regular-50"/>
      <use x="55.699997" xlink:href="#STIXGeneral-Regular-61"/>
      <use x="100.099991" xlink:href="#STIXGeneral-Regular-74"/>
      <use x="127.899979" xlink:href="#STIXGeneral-Regular-68"/>
      <use x="177.899963" xlink:href="#STIXGeneral-Regular-66"/>
      <use x="211.199951" xlink:href="#STIXGeneral-Regular-69"/>
      <use x="238.999939" xlink:href="#STIXGeneral-Regular-6e"/>
      <use x="288.999924" xlink:href="#STIXGeneral-Regular-64"/>
      <use x="338.999908" xlink:href="#STIXGeneral-Regular-65"/>
      <use x="383.399902" xlink:href="#STIXGeneral-Regular-72"/>
     </g>
    </g>
    <g id="line2d_19">
     <path d="M 68.71125 52.458437 
L 96.71125 52.458437 
" style="fill:none;stroke:#0000ff;stroke-linecap:square;stroke-width:1.2;"/>
    </g>
    <g id="line2d_20"/>
    <g id="text_16">
     <!-- Opportunity -->
     <defs>
      <path d="M 68.796875 33.09375 
Q 68.796875 17.703125 59.6875 8.140625 
Q 50.59375 -1.40625 36.09375 -1.40625 
Q 21.5 -1.40625 12.453125 8.1875 
Q 3.40625 17.796875 3.40625 33.40625 
Q 3.40625 48.59375 12.453125 58.09375 
Q 21.5 67.59375 36.09375 67.59375 
Q 50.703125 67.59375 59.75 57.84375 
Q 68.796875 48.09375 68.796875 33.09375 
z
M 57.40625 33.703125 
Q 57.40625 42.203125 55 48.953125 
Q 52.59375 55.703125 48.296875 59.296875 
Q 42.703125 64 36 64 
Q 27.5 64 21.703125 57.296875 
Q 18.5 53.703125 16.640625 47.046875 
Q 14.796875 40.40625 14.796875 33.203125 
Q 14.796875 15 23.796875 6.703125 
Q 28.703125 2.203125 36.203125 2.203125 
Q 44 2.203125 49.09375 7 
Q 57.40625 15 57.40625 33.703125 
z
" id="STIXGeneral-Regular-4f"/>
      <path d="M 15.90625 45.796875 
L 15.90625 38.09375 
Q 22.203125 46 30.296875 46 
Q 37.59375 46 42.296875 40 
Q 47 34 47 24.703125 
Q 47 13.796875 40.953125 6.390625 
Q 34.90625 -1 26 -1 
Q 22.90625 -1 20.75 -0.09375 
Q 18.59375 0.796875 15.90625 3.296875 
L 15.90625 -12.40625 
Q 15.90625 -17.09375 17.5 -18.4375 
Q 19.09375 -19.796875 24.703125 -19.90625 
L 24.703125 -21.703125 
L 0.5 -21.703125 
L 0.5 -20 
Q 4.90625 -19.59375 6.203125 -18.296875 
Q 7.5 -17 7.5 -13.09375 
L 7.5 33.703125 
Q 7.5 37.203125 6.703125 38.296875 
Q 5.90625 39.40625 3.40625 39.40625 
Q 1.796875 39.40625 0.90625 39.296875 
L 0.90625 40.90625 
Q 7.90625 43 15.296875 46 
z
M 15.90625 33.40625 
L 15.90625 8.796875 
Q 15.90625 6.59375 19.34375 4.390625 
Q 22.796875 2.203125 26.296875 2.203125 
Q 31.703125 2.203125 35.046875 7.296875 
Q 38.40625 12.40625 38.40625 20.703125 
Q 38.40625 29.5 35.046875 34.75 
Q 31.703125 40 26.09375 40 
Q 22.59375 40 19.25 37.796875 
Q 15.90625 35.59375 15.90625 33.40625 
z
" id="STIXGeneral-Regular-70"/>
     </defs>
     <g transform="translate(107.91125 57.358437)scale(0.14 -0.14)">
      <use xlink:href="#STIXGeneral-Regular-4f"/>
      <use x="72.199982" xlink:href="#STIXGeneral-Regular-70"/>
      <use x="122.199966" xlink:href="#STIXGeneral-Regular-70"/>
      <use x="172.199951" xlink:href="#STIXGeneral-Regular-6f"/>
      <use x="222.199936" xlink:href="#STIXGeneral-Regular-72"/>
      <use x="255.499924" xlink:href="#STIXGeneral-Regular-74"/>
      <use x="283.299911" xlink:href="#STIXGeneral-Regular-75"/>
      <use x="333.299896" xlink:href="#STIXGeneral-Regular-6e"/>
      <use x="383.299881" xlink:href="#STIXGeneral-Regular-69"/>
      <use x="411.099869" xlink:href="#STIXGeneral-Regular-74"/>
      <use x="438.899857" xlink:href="#STIXGeneral-Regular-79"/>
     </g>
    </g>
    <g id="line2d_21">
     <path d="M 68.71125 72.31 
L 96.71125 72.31 
" style="fill:none;stroke:#000000;stroke-linecap:square;stroke-width:1.2;"/>
    </g>
    <g id="line2d_22"/>
    <g id="text_17">
     <!-- MSL -->
     <defs>
      <path d="M 86.40625 0 
L 58.40625 0 
L 58.40625 1.90625 
Q 64.296875 2.296875 65.84375 4.140625 
Q 67.40625 6 67.40625 12.296875 
L 67.40625 57.203125 
L 41.90625 0 
L 40.5 0 
L 15.296875 54.90625 
L 15.296875 15.09375 
Q 15.296875 7 17 4.59375 
Q 18.703125 2.203125 24.59375 1.90625 
L 24.59375 0 
L 1.203125 0 
L 1.203125 1.90625 
Q 5.59375 2.203125 7.5 3.203125 
Q 9.40625 4.203125 10.15625 6.75 
Q 10.90625 9.296875 10.90625 15.09375 
L 10.90625 54.90625 
Q 10.90625 60.59375 9.203125 62.25 
Q 7.5 63.90625 1.40625 64.296875 
L 1.40625 66.203125 
L 21.203125 66.203125 
L 44.296875 16 
L 66.40625 66.203125 
L 86.296875 66.203125 
L 86.296875 64.296875 
Q 80.90625 64.203125 79.25 62.390625 
Q 77.59375 60.59375 77.59375 55 
L 77.59375 11.203125 
Q 77.59375 5.90625 79.25 4.09375 
Q 80.90625 2.296875 86.40625 1.90625 
z
" id="STIXGeneral-Regular-4d"/>
      <path d="M 46.90625 46.296875 
L 44.40625 46.296875 
Q 42.703125 52.5 40.296875 55.703125 
Q 34.203125 63.5 25.796875 63.5 
Q 21.203125 63.5 18.453125 60.84375 
Q 15.703125 58.203125 15.703125 54 
Q 15.703125 52 16.703125 50.09375 
Q 17.703125 48.203125 18.84375 46.84375 
Q 20 45.5 22.890625 43.5 
Q 25.796875 41.5 27.59375 40.453125 
Q 29.40625 39.40625 33.59375 36.90625 
Q 41.703125 32.203125 45.390625 27.546875 
Q 49.09375 22.90625 49.09375 17.296875 
Q 49.09375 9 43.296875 3.796875 
Q 37.5 -1.40625 28.703125 -1.40625 
Q 22.203125 -1.40625 16.90625 0.90625 
Q 14.296875 2 12.203125 2 
Q 11 2 10.203125 1.09375 
Q 9.40625 0.203125 9.40625 -1.296875 
L 7.203125 -1.296875 
L 4.296875 19.90625 
L 6.5 19.90625 
Q 13.203125 2.203125 27.09375 2.203125 
Q 32.40625 2.203125 35.703125 5.34375 
Q 39 8.5 39 13.40625 
Q 39 18.09375 36.09375 21.296875 
Q 31.296875 26.5 19.296875 32.90625 
Q 7.09375 39.40625 7.09375 50.09375 
Q 7.09375 58.09375 12 62.84375 
Q 16.90625 67.59375 24.5 67.59375 
Q 29.796875 67.59375 35 65.40625 
Q 37.703125 64.203125 39.40625 64.203125 
Q 42 64.203125 42.59375 67.59375 
L 44.703125 67.59375 
z
" id="STIXGeneral-Regular-53"/>
      <path d="M 59.796875 17.40625 
L 55 0 
L 1.203125 0 
L 1.203125 1.90625 
Q 6.703125 2.203125 8.296875 4 
Q 9.90625 5.796875 9.90625 11.5 
L 9.90625 54.59375 
Q 9.90625 60.5 8.453125 62.203125 
Q 7 63.90625 1.203125 64.296875 
L 1.203125 66.203125 
L 29.5 66.203125 
L 29.5 64.296875 
Q 23.40625 63.90625 21.75 62.25 
Q 20.09375 60.59375 20.09375 54.796875 
L 20.09375 8.40625 
Q 20.09375 5.59375 21.84375 4.75 
Q 23.59375 3.90625 29.09375 3.90625 
L 36.09375 3.90625 
Q 48.203125 3.90625 53 10 
Q 55 12.703125 57.203125 17.40625 
z
" id="STIXGeneral-Regular-4c"/>
     </defs>
     <g transform="translate(107.91125 77.21)scale(0.14 -0.14)">
      <use xlink:href="#STIXGeneral-Regular-4d"/>
      <use x="88.899994" xlink:href="#STIXGeneral-Regular-53"/>
      <use x="144.499985" xlink:href="#STIXGeneral-Regular-4c"/>
     </g>
    </g>
    <g id="line2d_23">
     <path d="M 68.71125 92.148437 
L 96.71125 92.148437 
" style="fill:none;stroke:#ff0000;stroke-dasharray:7.68,1.92,1.2,1.92;stroke-dashoffset:0;stroke-width:1.2;"/>
    </g>
    <g id="line2d_24"/>
    <g id="text_18">
     <!-- Red Dragon -->
     <defs>
      <path d="M 66 0 
L 49.796875 0 
L 26 30.796875 
L 20.40625 30.59375 
L 20.40625 11.203125 
Q 20.40625 5.5 21.953125 3.890625 
Q 23.5 2.296875 29.296875 1.90625 
L 29.296875 0 
L 1.703125 0 
L 1.703125 1.90625 
Q 7.40625 2.40625 8.796875 4.09375 
Q 10.203125 5.796875 10.203125 12.40625 
L 10.203125 55.09375 
Q 10.203125 60.703125 8.796875 62.296875 
Q 7.40625 63.90625 1.703125 64.296875 
L 1.703125 66.203125 
L 28.90625 66.203125 
Q 42.59375 66.203125 49.796875 60.296875 
Q 54.703125 56.296875 54.703125 48.296875 
Q 54.703125 34.703125 36.59375 31.90625 
L 56.59375 6.59375 
Q 58.703125 4 60.59375 3.09375 
Q 62.5 2.203125 66 1.90625 
z
M 20.40625 58.296875 
L 20.40625 34.296875 
Q 27.59375 34.40625 31.09375 35.09375 
Q 34.59375 35.796875 38.09375 37.703125 
Q 43.796875 40.90625 43.796875 49.09375 
Q 43.796875 62.5 25.5 62.5 
Q 22.796875 62.5 21.59375 61.640625 
Q 20.40625 60.796875 20.40625 58.296875 
z
" id="STIXGeneral-Regular-52"/>
      <path d="M 1.59375 66.203125 
L 28.59375 66.203125 
Q 48.09375 66.203125 58.59375 57.09375 
Q 68.5 48.59375 68.5 33.40625 
Q 68.5 15.09375 54.90625 6.40625 
Q 45 0 29.703125 0 
L 1.59375 0 
L 1.59375 1.90625 
Q 7.40625 2.296875 8.90625 3.9375 
Q 10.40625 5.59375 10.40625 11.5 
L 10.40625 55 
Q 10.40625 60.796875 8.90625 62.34375 
Q 7.40625 63.90625 1.59375 64.296875 
z
M 20.59375 58.296875 
L 20.59375 8.40625 
Q 20.59375 5.703125 21.546875 4.703125 
Q 22.5 3.703125 25.40625 3.703125 
Q 33.203125 3.703125 38 4.796875 
Q 42.796875 5.90625 47.203125 8.90625 
Q 57.59375 15.90625 57.59375 32.796875 
Q 57.59375 47.296875 48.09375 55.59375 
Q 43.796875 59.40625 38.6875 60.953125 
Q 33.59375 62.5 25.90625 62.5 
Q 23 62.5 21.796875 61.59375 
Q 20.59375 60.703125 20.59375 58.296875 
z
" id="STIXGeneral-Regular-44"/>
      <path d="M 47 38.796875 
L 38.703125 38.796875 
Q 40.59375 34.5 40.59375 30.40625 
Q 40.59375 22.703125 35.390625 18.796875 
Q 30.203125 14.90625 25 14.90625 
Q 23.90625 14.90625 21.203125 15.203125 
L 19.296875 15.40625 
Q 17.296875 14.796875 15.296875 12.6875 
Q 13.296875 10.59375 13.296875 9.09375 
Q 13.296875 6.796875 21.09375 6.40625 
L 34 5.796875 
Q 39.5 5.59375 42.796875 2.6875 
Q 46.09375 -0.203125 46.09375 -4.90625 
Q 46.09375 -10.703125 40.09375 -15.40625 
Q 31.796875 -21.796875 20.09375 -21.796875 
Q 12.90625 -21.796875 7.84375 -18.9375 
Q 2.796875 -16.09375 2.796875 -12.09375 
Q 2.796875 -9.296875 5 -6.546875 
Q 7.203125 -3.796875 12.59375 0.09375 
Q 9.40625 1.59375 8.34375 2.6875 
Q 7.296875 3.796875 7.296875 5.40625 
Q 7.296875 8.296875 11.90625 12.296875 
Q 14.203125 14.296875 16.203125 16.296875 
Q 11.203125 18.796875 9.046875 21.890625 
Q 6.90625 25 6.90625 29.703125 
Q 6.90625 36.5 11.75 41.25 
Q 16.59375 46 23.59375 46 
Q 27.59375 46 31.59375 44.5 
L 33.796875 43.703125 
Q 36.703125 42.703125 39.296875 42.703125 
L 47 42.703125 
z
M 15.203125 33.796875 
L 15.203125 33.5 
Q 15.203125 26.296875 18.046875 21.84375 
Q 20.90625 17.40625 25.5 17.40625 
Q 28.90625 17.40625 30.90625 19.84375 
Q 32.90625 22.296875 32.90625 26.40625 
Q 32.90625 33 29.90625 38.5 
Q 27.40625 43.203125 22.59375 43.203125 
Q 19.09375 43.203125 17.140625 40.703125 
Q 15.203125 38.203125 15.203125 33.796875 
z
M 43.296875 -6.40625 
Q 43.296875 -3.59375 40.546875 -2.546875 
Q 37.796875 -1.5 30.90625 -1.5 
Q 21 -1.5 14.703125 -0.203125 
Q 11.703125 -3.796875 10.75 -5.4375 
Q 9.796875 -7.09375 9.796875 -8.796875 
Q 9.796875 -12.09375 13.75 -14.09375 
Q 17.703125 -16.09375 24.296875 -16.09375 
Q 32.796875 -16.09375 38.046875 -13.4375 
Q 43.296875 -10.796875 43.296875 -6.40625 
z
" id="STIXGeneral-Regular-67"/>
     </defs>
     <g transform="translate(107.91125 97.048437)scale(0.14 -0.14)">
      <use xlink:href="#STIXGeneral-Regular-52"/>
      <use x="66.699997" xlink:href="#STIXGeneral-Regular-65"/>
      <use x="111.099991" xlink:href="#STIXGeneral-Regular-64"/>
      <use x="161.099976" xlink:href="#STIXGeneral-Regular-20"/>
      <use x="186.09996" xlink:href="#STIXGeneral-Regular-44"/>
      <use x="258.299942" xlink:href="#STIXGeneral-Regular-72"/>
      <use x="291.59993" xlink:href="#STIXGeneral-Regular-61"/>
      <use x="335.999924" xlink:href="#STIXGeneral-Regular-67"/>
      <use x="385.999908" xlink:href="#STIXGeneral-Regular-6f"/>
      <use x="435.999893" xlink:href="#STIXGeneral-Regular-6e"/>
     </g>
    </g>
   </g>
  </g>
 </g>
 <defs>
  <clipPath id="p725aec77ae">
   <rect height="225.51" width="360.76875" x="56.11125" y="15.12"/>
  </clipPath>
 </defs>
</svg>
